<?xml version="1.0" encoding="utf-8"?>
<!-- Generator: Adobe Illustrator 24.3.0, SVG Export Plug-In . SVG Version: 6.00 Build 0)  -->
<svg version="1.1" id="Слой_2" xmlns="http://www.w3.org/2000/svg" xmlns:xlink="http://www.w3.org/1999/xlink" x="0px" y="0px"
	 viewBox="0 0 595.28 595.28" style="enable-background:new 0 0 595.28 595.28;" xml:space="preserve">
<style type="text/css">
	.st0{fill:#7F9BC3;}
	.st1{fill:#FFFFFF;}
</style>
<circle class="st0" cx="297.64" cy="297.64" r="297.64"/>
<path class="st1" d="M246,232.28c0,0,0-11,10-11s50-1,58,0s11,5,11,11s-8,71,5,70s45-74,48-75s59-1,64,0s8,5,5,12s-48,69-49,75
	s57,56,46,70s-60,8-66,5s-35-37-44-38s-10,30-13,34s-60,16-108-35s-69-122-64-123s56-4,62-1c2.35,1.17,3.91,16.91,13.61,33.23
	c15.08,25.39,32.91,54.64,34.39,42.77C268,230.28,246,232.28,246,232.28z"/>
</svg>
