<?xml version="1.0" encoding="utf-8"?>
<!-- Generator: Adobe Illustrator 24.3.0, SVG Export Plug-In . SVG Version: 6.00 Build 0)  -->
<svg version="1.1" id="Слой_2" xmlns="http://www.w3.org/2000/svg" xmlns:xlink="http://www.w3.org/1999/xlink" x="0px" y="0px"
	 viewBox="0 0 595.28 595.28" style="enable-background:new 0 0 595.28 595.28;" xml:space="preserve">
<style type="text/css">
	.st0{fill:#7F9BC3;}
	.st1{fill:#FFFFFF;}
</style>
<circle class="st0" cx="297.64" cy="297.64" r="297.64"/>
<path class="st1" d="M252,210.28c0,0,12-9,0-25s-53-58-64-66s-20-5-25,0s-42,31-45,59s-9,72,55,155s175.82,161.33,242,144
	c42-11,58-41,62-49s1-16,0-20s-66-67-66-67s-19.99-24.33-53,24c-28,41-155-104-129-127C251.78,218.12,252,210.28,252,210.28z"/>
</svg>
