<?xml version="1.0" encoding="utf-8"?>
<!-- Generator: Adobe Illustrator 24.3.0, SVG Export Plug-In . SVG Version: 6.00 Build 0)  -->
<svg version="1.1" id="Слой_1" xmlns="http://www.w3.org/2000/svg" xmlns:xlink="http://www.w3.org/1999/xlink" x="0px" y="0px"
	 viewBox="0 0 612 612" style="enable-background:new 0 0 612 612;" xml:space="preserve">
<style type="text/css">
	.st0{fill:#FFFFFF;}
</style>
<path class="st0" d="M396.44,272.35c-9.71-0.5-18.28,7.29-18.72,17.01c-0.45,9.8,7.21,18.28,16.96,18.78
	c9.65,0.49,18.23-7.27,18.79-17.01C414.02,281.57,406.12,272.86,396.44,272.35z"/>
<path class="st0" d="M216.32,272.34c-9.68,0.06-17.89,8.37-17.81,18.03c0.08,9.68,8.37,17.86,18.05,17.79
	c9.79-0.07,17.79-8.21,17.73-18.03C234.24,280.32,226.11,272.27,216.32,272.34z"/>
<path class="st0" d="M306,0C137,0,0,137,0,306s137,306,306,306s306-137,306-306S475,0,306,0z M97.86,281.5
	c-40.28-50.03-12.31-122.96,51.2-133.68c0.94-0.16,1.82-0.66,2.73-1c6.38,0,12.75,0,19.13,0c7.97,2.34,15.96,4.6,23.89,7.07
	c2.19,0.68,4.18,1.98,7.17,3.45c-50.37,31.98-81.73,76.24-93.48,135.4C104.48,288.52,100.88,285.24,97.86,281.5z M299.94,384.06
	c-5.13-6.06-10.05-12.32-14.68-18.77c-3.91-5.43-1.01-11.53,5.65-12.02c5.14-0.38,10.33-0.08,15.49-0.08c0-0.01,0-0.02,0-0.03
	c4.77,0,9.55-0.26,14.3,0.06c7.09,0.47,10.08,6.56,5.91,12.25c-4.7,6.4-9.69,12.61-14.86,18.63
	C308.13,388.29,303.52,388.29,299.94,384.06z M447.82,400.92c-19.43,28.86-47.66,45.89-80.56,55.23
	c-13.84,3.93-28.23,5.95-43.32,9.03c0-15.87-0.1-29.96,0.16-44.05c0.03-1.39,2.14-2.9,3.52-4.08c16.22-13.77,31.66-28.43,36.01-50.3
	c4.71-23.71-14.04-47.46-38.24-49.06c-12.49-0.83-25.11-0.78-37.61-0.1c-16.49,0.89-28.5,9.53-35.66,24.29
	c-7.3,15.04-6.32,30.11,3.62,43.48c8.93,12.02,16.42,25.65,30.57,32.98c0.84,0.44,1.66,1.85,1.67,2.82
	c0.11,14.09,0.07,28.18,0.07,42.73c-20.28-1.18-39.27-5.24-57.47-12.43c-42.88-16.95-74.1-45.6-84.55-91.75
	c-12.7-56.13,2.43-105.5,42.62-146.33c86.27-87.64,238.16-51.55,274.23,65.13C476.09,321.19,473.44,362.85,447.82,400.92z
	 M506.01,290.2c-0.55,0.53-1.22,0.94-2.6,1.99c-11.57-58.4-42.91-102.83-92.73-134.46c0.01-0.67,0.02-1.33,0.03-2
	c10.12-2.97,20.24-5.94,30.37-8.91c6.38,0,12.75,0,19.13,0c4.78,1.2,9.66,2.1,14.33,3.66c29.69,9.91,49.04,29.99,56.03,60.46
	C537.63,241.68,528.55,268.22,506.01,290.2z"/>
</svg>
