<?xml version="1.0" encoding="utf-8"?>
<!-- Generator: Adobe Illustrator 24.3.0, SVG Export Plug-In . SVG Version: 6.00 Build 0)  -->
<svg version="1.1" id="Слой_1" xmlns="http://www.w3.org/2000/svg" xmlns:xlink="http://www.w3.org/1999/xlink" x="0px" y="0px"
	 viewBox="0 0 612 612" style="enable-background:new 0 0 612 612;" xml:space="preserve">
<style type="text/css">
	.st0{fill:#FFFFFF;}
</style>
<path class="st0" d="M335.81,324.99c-26.4,3.05-56.67-15.55-79,12.01c-1.1,1.36-0.94,3.93-0.94,5.94
	c-0.06,26.14-0.04,52.27-0.04,80.16c34.19,0,65.18,0,100.58,0c0-27.23,1.79-51.66-0.95-75.57
	C354.47,338.96,341.73,324.31,335.81,324.99z"/>
<path class="st0" d="M306,0.92C137.51,0.92,0.92,137.51,0.92,306S137.51,611.08,306,611.08S611.08,474.49,611.08,306
	S474.49,0.92,306,0.92z M375.89,493.53c-57.86-2.81-115.98-0.19-173.98-0.57c-57.68-0.37-79.4-24.74-84.09-81.01
	c-3.68-44.17,9.98-73.64,46.2-99.79c49.22-35.53,94.07-77.11,142.08-117.17c59.89,50.04,118.53,98.59,176.4,148.05
	c5.93,5.07,10.06,15.5,10.22,23.53C494.32,446.11,503.01,499.7,375.89,493.53z M518.25,294c-14.4,16.59-32.08,16.66-48.69,2.96
	c-47.89-39.47-95.87-78.86-142.73-119.53c-15.28-13.26-25.62-13.9-41.22-0.24c-44.39,38.86-90.38,75.88-135.48,113.94
	c-18.22,15.38-37.64,24.23-55.99,3.14c-18.47-21.23-7.08-39.16,11.38-54.54c55.5-46.23,110.63-92.91,166.31-138.92
	c26.72-22.08,42.35-21.5,70.32,1.36c25.78,21.07,51.11,42.67,80.48,67.25c0.25-33.93,8.77-57.65,43.45-49.29
	c10.46,2.52,22.35,15.58,25.86,26.34c4.51,13.82,2.04,30.22,1.12,45.42c-1.34,22.19,1.05,40.97,21.43,56.13
	C530.05,259.57,531.83,278.35,518.25,294z"/>
</svg>
