<?xml version="1.0" encoding="utf-8"?>
<!-- Generator: Adobe Illustrator 24.3.0, SVG Export Plug-In . SVG Version: 6.00 Build 0)  -->
<svg version="1.1" id="Слой_1" xmlns="http://www.w3.org/2000/svg" xmlns:xlink="http://www.w3.org/1999/xlink" x="0px" y="0px"
	 viewBox="0 0 612 612" style="enable-background:new 0 0 612 612;" xml:space="preserve">
<style type="text/css">
	.st0{fill:#FFFFFF;}
</style>
<path class="st0" d="M304.56,245.64c23.28,1.03,32.47-16.1,35.17-37.2c-2.47-21.46-11.53-38.3-35.02-37.45
	c-21.58,0.78-31.37,16.58-31.37,37.13C273.34,228.65,283.34,244.69,304.56,245.64z"/>
<path class="st0" d="M306,0C137,0,0,137,0,306s137,306,306,306s306-137,306-306S475,0,306,0z M204.91,205.99
	c1.48-57.69,47.45-104.79,101.81-104.32C362.2,102.15,409,152.6,407.51,210.29c-1.5,57.59-47.33,104.33-102.01,104.03
	C249.67,314.02,203.42,264.2,204.91,205.99z M423.06,509.8c-39.4,1.05-78.84,0.21-118.27,0.22c-38.41,0.01-76.85,0.79-115.24-0.19
	c-48.69-1.24-73.92-40.48-52.67-84.52c33.62-69.67,93.07-99.73,167.38-100.2c75.42-0.48,136.19,28.89,170.71,99.7
	C496.39,468.72,471.36,508.52,423.06,509.8z"/>
</svg>
