<?xml version="1.0" encoding="utf-8"?>
<!-- Generator: Adobe Illustrator 24.3.0, SVG Export Plug-In . SVG Version: 6.00 Build 0)  -->
<svg version="1.1" id="Слой_1" xmlns="http://www.w3.org/2000/svg" xmlns:xlink="http://www.w3.org/1999/xlink" x="0px" y="0px"
	 viewBox="0 0 612 612" style="enable-background:new 0 0 612 612;" xml:space="preserve">
<style type="text/css">
	.st0{fill:#FEFEFE;}
</style>
<path class="st0" d="M306,0C137,0,0,137,0,306s137,306,306,306s306-137,306-306S475,0,306,0z M257.61,487.31
	c-5.51-0.06-11.02-0.13-16.53-0.19c-9.82-14.22-28.65-29.61-27-42.36c1.76-13.66,22.68-34.22,35.45-34.38
	c12.27-0.15,33.19,20.94,34.84,34.56C285.93,457.79,267.34,473.09,257.61,487.31z M426.01,443.24c-1.37,13.72-21.5,35.33-33.7,35.51
	c-12.65,0.19-33.83-19.87-36.04-33.53c-2.04-12.65,16.07-28.55,25.3-43.03c5.65-0.17,11.31-0.34,16.96-0.51
	C408.49,415.61,427.29,430.42,426.01,443.24z M466.43,206.81c-11.47,80.24-23.54,91.22-105.53,91.23c-37.14,0-74.29,0-111.43,0
	c-0.56,5.44-1.12,10.87-1.69,16.31c11.48,1.75,22.95,4.81,34.46,5.01c39.22,0.69,78.72-2.22,117.53,1.83
	c13.82,1.44,34.36,17.02,37.07,29.38c5.08,23.21-14.04,34.08-36.85,34.17c-49.69,0.19-99.4,1.03-149.05-0.34
	c-35.67-0.98-58.38-20.69-65.93-55.86c-5.49-25.53-10.59-51.21-14.04-77.07c-3.85-28.83-4.2-57.69-46.3-56.88
	c-6.86,0.13-20.59-19.32-19.48-28.28c1.39-11.2,15.58-30.18,22.97-29.6c28.37,2.22,56.33,10.57,84.26,17.37
	c13,3.17,25.52,11.3,38.37,11.57c60.12,1.26,120.3,1.3,180.43,0.27C461.19,165.41,470.55,177.99,466.43,206.81z"/>
</svg>
