<?xml version="1.0" encoding="utf-8"?>
<!-- Generator: Adobe Illustrator 24.3.0, SVG Export Plug-In . SVG Version: 6.00 Build 0)  -->
<svg version="1.1" id="Слой_1" xmlns="http://www.w3.org/2000/svg" xmlns:xlink="http://www.w3.org/1999/xlink" x="0px" y="0px"
	 viewBox="0 0 595.28 297.64" style="enable-background:new 0 0 595.28 297.64;" xml:space="preserve">
<style type="text/css">
	.st0{fill:#FFFFFF;}
</style>
<path class="st0" d="M90.97,193.66c0.3,0.01,0.59,0.03,0.89,0.03C91.87,193.69,91.54,193.65,90.97,193.66z"/>
<path class="st0" d="M291.83,124.17c-10.17-2.94-10.13,1.82-10.03,10.17c0.08,6.96-1.63,16.29,10.03,12.64
	C304.4,143.03,308.28,129.65,291.83,124.17z"/>
<path class="st0" d="M452.78,149.86c0.06-1.69-0.81-2.14-2.54-2.27c-2.27-0.18-17.77-1.86-14.32,6.56
	C439.27,162.3,452.51,157.08,452.78,149.86z"/>
<path class="st0" d="M215.83,148.37c0,3.49,2.79,10.23,14.45,7.1c10.97-2.94,6.82-7.86,6.56-8.48c-0.27-0.62-7.8-9.8-9.63-9.32
	C221.7,139.14,215.83,144.89,215.83,148.37z"/>
<path class="st0" d="M228.43,125.64c7.11,0.13,10.94-13.41,1.72-13.38C220.91,112.23,223.1,123.37,228.43,125.64z"/>
<path class="st0" d="M584.01,81.96c-15.99-28.4-47.65-50.2-57.36-43.61c-9.24,6.27-4.05,15.79-3.38,17.8
	c0.67,2.01,18.23,26.47,9.74,57.07c-9.4-7.05-22.49,5.37-22.49,5.37s-6.04-9.4-21.82-7.05c0.67-6.71,7.43-13.88,12.08-15.78
	c4.43-1.8,14.62-0.35,14.1-14.1c-0.45-11.86-12.19-9.44-16.53-11.99c-5.33-3.13-12.84-12.82-13.38-33.28
	c-0.18-6.72-7.01-10.12-10.7-10.12c-3.69,0-11.09,2.46-12.08,11.75c-1.08,10.15-1.22,29.88-18.63,33.48
	c-16.81,3.48-12.87,23.27,1.84,23.59c7.39,0.16,13.37,11.99,14.38,16.69c-7.05-3.69-31.39-4.18-40.22,4.12
	c-1.33-1.6-6.19-5.26-7.18-5.68c-1.35-3.68-7.5-27.22-34.83-55.92c-14.95-15.7-32.53-30.2-60.14-41.14
	c-13.05-5.17-28.5-9.94-40.64-11.31c-34.6-3.92-71.07-1.21-114.6,30.57c-18.38-13.99-40.13-21.33-56.15-23.93
	C81.16,4.45,59.94,13.9,49.95,20.23C36.44,31.11,33.68,34.75,28.31,45.74c-7.18,14.7-7.92,34.34-5.22,52.03
	c0,0-17.46-2.69-21.48,15.78c-4.03,18.46,12.76,34.02,18.13,35.48c-0.34,11.19,2.35,29.65,23.16,26.29
	c-4.03,6.71-9.45,7.04-12.76,7.72c-5.62,1.16-8.75,4-8.93,11.42c-0.13,5.13,3.56,11.4,14.3,12.75
	c11.96,1.49,14.19,26.73,14.86,32.77c0.67,6.04,7.63,10.87,11.32,10.53c3.69-0.34,11.41-2.01,12.76-14.43
	c1.34-12.42,7.39-26.86,15.44-29.21c8.06-2.35,12.88-2.94,13.03-11.87c0.2-11.65-8.91-11.29-16.72-14.65
	c-5.51-2.37-4.78-5.15-4.78-5.15s19.55,11.19,41.37-4.92c3.97,2.69,7.35,5.15,14.73,6.49c0,0-1.85,3.91-1.18,7.94
	s5.9,18.13,1.21,34.58c-5.14,18.03,10.57,29.28,17.62,29.28c-11.75,4.03-18.44,10.46-18.24,16.35c0.12,3.65-2.81,15.16,34.2,12.42
	c-2.01,14.77,6.02,24.19,18.46,17.82c13.12-6.72,40.04-38.79,38.69-54.57c0.67,15.78,31.65,57,44.99,56.37
	c11.64-0.55,13.97-9.08,11.64-19.49c23.81,0.65,34.6,1.24,34.6-12.86c-0.34-9.4-5.04-10.07-7.39-11.08s-9.06-3.69-9.74-5.04
	c5.71-1.34,18.13-7.39,18.13-21.82c-1.76-10.7-6.18-17.56-2.35-33.91c3.5-14.95,1.01-17.46-0.34-20.81
	c1.68-1.68,3.36-2.69,3.36-2.69c6.04,10.07,35.92,11.75,44.98-1.01c4.94,6.01,24.03,15.61,48.23,6.14
	c4.08,14.83,38.57,59.78,91.76,54.28c48.27-4.99,66.74-33.09,78.55-53.38C595.37,157,602.15,114.16,584.01,81.96z M39.24,163.29
	c-8.64-0.68-4.72-13.21-7.82-20.64s-17.52-5.36-17.52-27.01c0-6.6,11.51-9.51,15.02-1.26c3.51,8.25,6.6,13.62,10.32,14.24
	c3.71,0.62,10.26-2.86,14.24-12.38c3.98-9.52,14.65-6.4,15.06,3.3c0.41,9.7-10.11,19.6-18.36,22.7
	C45.22,144.1,52.45,164.32,39.24,163.29z M90.97,193.66c0.57-0.01,0.89,0.03,0.89,0.03C91.56,193.68,91.27,193.67,90.97,193.66
	c-4.45,0.04-24.16,2.49-28.09,42.45c-0.38,3.89-0.48-40.77-29.94-42.6c25.03-0.71,29.47-38.56,29.47-38.56
	S67.77,192.54,90.97,193.66z M97.02,165.77c-29.51-0.62-25.51-30.61-23.73-37.76c1.9-7.62,13.66-9.1,15.15-1.67
	c1.42,5.43-2.15,25.11,9.96,24.99c10.78-0.11,11.37-13.84,11.66-21.89c0.3-8.21,12.76-10.51,13.99-3.08
	C126.32,139.15,126.52,166.39,97.02,165.77z M98.5,118.95c0-9.88-8.49-11.26-11.01-11.73c-5.96-1.1-9.35,0.81-9.35,0.81
	s-1.01-8.45-13.58-10.74c-5.25-0.95-9.01-0.37-11.83,0.9c-8.68,3.93-8.48,14.49-15.54,7.34c-6.12-17.32-4.61-31.17-0.55-44.98
	c0.18-0.61,0.36-1.2,0.54-1.77c1.93-6.19,3.84-10.46,5.86-13.78c0.83-1.33,1.73-2.62,2.69-3.82v0c2.39-2.97,4.99-5.29,7.98-8.27
	c3.64-3.62,13.18-8.89,26.39-11.36c8.19-1.38,18.11-1.65,30.04,0.04c0.27,0.05,0.54,0.1,0.82,0.15c2.05,0.41,4.06,0.88,6.04,1.39
	c13.45,3.65,30.22,11.72,43.98,24.03c13.65,12.76,22.56,28.53,25.31,44.13c0.72,4.83,0.92,9.91,0.52,15.22
	c-7.77-1.88-17.91,0.72-23.33,7.33c-4.29-7.72-23.85-10.55-33.22,0C125.92,107.59,102.86,101.71,98.5,118.95z M137.45,163.94
	c-11.29,2.18-7.95-31.7,0.77-37.6c17.33-12.45,21.82,6.67,22.85,8.98c1.03,2.31,0.77,2.31,3.1,3.03c2.33,0.72,3.32-2.78,3.96-3.68
	c0.64-0.9,3.59-10.14,12.45-11.94c8.86-1.8,15.4,4.88,16.04,20.88s-2.87,19.03-7.7,19.71c-9.37,1.31-7.32-15.62-7.32-20.23
	c0-4.19-5.2-7.49-8.47,2.1c-3.27,9.59-6.8,9.75-9.66,10.14c-2.86,0.39-6.91-2.31-7.8-5.39c-0.89-3.08-1.03-8.98-5.26-10.14
	c-4.24-1.16-5.9,12.96-6.03,14.12C144.25,155.09,145.79,162.27,137.45,163.94z M277.57,236.22
	C277.57,236.22,277.57,236.22,277.57,236.22c2.04,13.19,23.78,26.32,31.33,28.28c-2.23,0-34.54-0.39-34.54-0.39s0,15.84,0,20.54
	c-44.2-31.29-34.54-63.73-34.54-63.73c-2.08,3.23-17.86,3.71-22.01,0.96c0.17,0.71,0.31,1.48,0.41,2.33
	c2.89,24.82-25.43,56.53-35.84,60.44c0.15-3.33,0-20.93,0-20.93s-21.08,0-33.01,0c15.65-4.5,26.8-18.19,30.85-27.68l0,0
	c-34.45,6.18-32.82-12.76-32.12-15.87c0.74-3.24,2.01-10.47,3-18.45c1-7.98-7.23-21.19,0-26.18c22.19-13.21,60.08,3.49,65.81,10.47
	c2.71-2.16,4.92-2.56,11.35-2.76c6.43-0.2,11.54,2.76,11.54,2.76c5.73-6.98,43.63-23.68,65.81-10.47c7.23,4.99-1,18.2,0,26.18
	c1,7.98,2.27,15.21,3,18.45C309.33,223.24,310.94,241.83,277.57,236.22z M213.43,114.27c2.05-9.88,25.86-15,31.96,0
	c3.54,11.48-9.61,14.08-9.7,16.26c-0.07,1.93,8.49,12.63,9.39,10.73c7.54-16.01,15.84-5.28,7.46,4.76c-1.9,2.79,2.51,4.45,4.53,6.75
	c0,0,6.84,5.42,2.31,10.27c-3.99,4.28-9.53,0.09-11.2-3.6c-1.84-3.02-2.19-1.34-5.45,1.59c-2.28,2.05-6.7,7.37-18.77,6.76
	c-9.3-0.48-22.29-2.4-21.18-19.42c-0.02-10.36,12.8-16.42,18.08-18.09C222.45,129.02,211.38,124.16,213.43,114.27z M274.36,162.99
	c-1.72-0.19-4.27-1.31-5.28-2.36c-4.15-4.35-3.09-35.28-1.47-42.75c0.62-2.86,2.08-5.04,4.15-6.62c12.62-9.66,47.62,3.46,48.3,25.08
	C320.72,157.48,290.62,164.75,274.36,162.99z M352.17,132.33c-1.34,0-12.18-2.01-9.37,15.46c0.74,4.6,2.2,10.95-0.4,14.24
	c-2.19,2.77-8.24,3.07-10.17,1.21c-7.36-7.09-7.89-24.35-3.88-33.85c6.06-14.35,36.26-13.65,38.4-2.81
	C368.89,137.41,353.5,132.33,352.17,132.33z M360.73,109.07c-6.27-1.9-13.68-2.09-20.46-0.61c-6.01,1.31-11.52,3.91-15.27,7.81
	c-23.19-34.05-60.86-41.78-90.76-35.61c-21.15,4.47-34.58,17.12-34.58,17.12s-0.63-7.57-3.44-17.05c-1.39-4.72-3.33-9.9-5.99-14.88
	c-0.72-1.35-1.49-2.68-2.32-3.99c-1.93-3.54-4.08-6.86-6.41-10.01c-2.88-3.89-6.02-7.49-9.37-10.8
	c16.54-9.97,63.2-43.08,131.35-19.5c66.18,21.82,90.14,85.31,90.14,85.31c-5.54,0.1-10.33,1.55-14.08,3.57
	c-3.24,1.75-5.71,3.93-7.2,6.07C369.71,113,365.56,110.53,360.73,109.07z M400.87,165.78c-32.76,4.06-35.86-26.22-24.62-38.4
	c12.64-13.7,38.95-9.63,38.93,5.55c-0.01,13.33-23.28,12.64-29.7,13.31c0,0-2.35,1.94,1.87,6.15c4.55,4.55,16.86-0.67,18.06-0.94
	s10.3-3.09,10.97,2.27C417.61,163.56,400.87,165.78,400.87,165.78z M494.64,122.2c4.93,0.53,8.53,5.33,11.87,15.2
	c1.6,3.87,5.87-2.4,8.8-7.87c2.93-5.47,14.4-11.6,21.6-2c7.2,9.6,3.07,31.87,1.33,33.87c-1.73,2-9.33,3.47-11.2-1.47
	c-1.87-4.93,0.03-16.17-2.8-20.37c-2.27-3.36-6,3.84-6.8,5.57c-0.8,1.73-3.01,10.27-9.71,10c-6.69-0.27-7.23-6.13-8.03-8.8
	c-0.8-2.67-2.93-9.87-7.33-4.93c-3.33,5.93-3.33,16.13-4.13,17.73c-0.8,1.6-1.6,3.87-6.8,4.4c-5.17,0.53-8.93-4.23-5.87-19.18
	C478.64,129.4,483.31,120.73,494.64,122.2z M443.77,82.69c15.04-1.24,26.67-11.75,29.93-44.35c0.93,9.77,4.5,42.18,28.53,44.35
	c-14.42,1.86-25.58,17.68-28.53,36.9C470.75,101.45,459.75,81.29,443.77,82.69z M424.28,147.45c3.85-5.4,13.38-7.89,26.49-6.96
	c1.47,0.1,2.5,0.67,2.68-0.93c0.21-2,0.68-10.35-20.87-4.69c-10.18,2.68-11.38-5.84-6.02-9.77c9.59-7.04,34.67-5.59,39.07,5.62
	c3.88,9.9,0.8,19.67,0.8,19.67s-0.27,0.8,2.01,3.21c2.27,2.41,5.22,8.79,0,10.82c-5.22,2.03-6.96-3.32-7.89-3.72
	c-0.94-0.4-1.47,0.67-2.54,1.2c-1.07,0.54-10,8.85-24.48,4.95C422.76,163.96,419.49,154.17,424.28,147.45z M539.69,205.58
	c-48.74,27.6-91.75-2.31-107.44-26.14c11.49,2.04,23.33,0.71,30.09-3.23c24.16,6.71,34.88-4.98,35.23-5.59
	c0.14,0.35,2.32,5.56,10.16,5.55c8.45-0.01,11.41-5.05,11.67-5.53c0.33,0.43,3.08,3.01,6.27,5.08c3.68,2.39,10.33,3.13,16.1,0.44
	c15.66-7.3,10.6-33.19,8.94-42.31c-1.23-6.77-4.63-11.43-7.43-14.24c1.48-6.14,2.28-12.52,2.59-19.08
	c1.25-26.19-9.07-44.59-13.48-51.21c6.37,0,36.93,23.45,44.1,45.82C586.78,122.37,592.2,175.85,539.69,205.58z"/>
<path class="st0" d="M396.85,138.94c7.05-1.88,7.22-8.92,1.74-10.35c-9.23-2.41-15.08,5.38-13.51,9.37
	C385.77,138.78,391.1,140.47,396.85,138.94z"/>
</svg>
