<?xml version="1.0" encoding="utf-8"?>
<!-- Generator: Adobe Illustrator 24.3.0, SVG Export Plug-In . SVG Version: 6.00 Build 0)  -->
<svg version="1.1" id="Слой_1" xmlns="http://www.w3.org/2000/svg" xmlns:xlink="http://www.w3.org/1999/xlink" x="0px" y="0px"
	 viewBox="0 0 612 612" style="enable-background:new 0 0 612 612;" xml:space="preserve">
<style type="text/css">
	.st0{fill:#FFFFFF;}
</style>
<g>
	<path class="st0" d="M155.28,612c-3.09,0-6.18,0-9.27,0c-0.73-0.2-1.45-0.39-2.18-0.6c-3.72-1.1-6.64-3.17-7.67-7.09
		c-0.86-3.24-1.61-6.54-2.09-9.85c-0.84-5.77-1.51-11.57-2.09-17.38c-0.44-4.37-0.66-8.75-0.91-13.14
		c-0.25-4.25-0.47-8.5-0.59-12.75c-0.16-5.36-0.22-10.73-0.31-16.1c-0.01-0.55,0.04-1.1-0.01-1.64c-0.09-0.95-0.24-1.89-0.37-2.88
		c-0.83,0.14-1.45,0.31-2.08,0.33c-4.37,0.12-8.74,0.2-13.1,0.31c-3.47,0.09-6.94,0.21-10.41,0.29c-4.27,0.11-8.54,0.2-12.81,0.3
		c-3.82,0.09-7.64,0.2-11.46,0.3c-4.17,0.1-8.34,0.2-12.51,0.3c-3.92,0.1-7.84,0.2-11.76,0.3c-4.37,0.1-8.74,0.23-13.1,0.29
		c-3.44,0.05-6.88,0.04-10.32-0.01c-0.7-0.01-1.46-0.21-2.09-0.53c-6.86-3.53-12.58-8.42-16.5-15.09
		c-3.06-5.19-3.41-10.57,0.25-15.6c2.48-3.42,5.96-5.79,9.74-7.63c9.59-4.67,19-9.67,27.64-15.94c4.09-2.96,7.97-6.24,11.74-9.6
		c2.28-2.03,4.27-4.4,6.21-6.77c2.7-3.31,4.88-6.92,5.98-11.14c0.31-1.19,0.02-1.61-0.92-2.03c-5.4-2.44-10.25-5.76-14.63-9.7
		c-6.19-5.57-11.33-11.95-14.8-19.64c-3.26-7.22-4.78-14.77-5.02-22.61c-0.16-5.18,0.58-10.3,1.44-15.41
		c0.79-4.68,1.19-9.43,2.21-14.05c1.88-8.56,3.98-17.07,6.19-25.55c1.34-5.15,1.64-10.17,0.09-15.35
		c-1.14-3.82-1.94-7.75-2.74-11.66c-1.19-5.83-2.3-11.68-3.35-17.54c-0.77-4.28-1.48-8.57-2.03-12.89
		c-0.54-4.24-1.09-8.51-1.16-12.77c-0.08-5.34-0.08-10.74,0.64-16.02c1.06-7.83,4.36-14.94,8.65-21.56c2.98-4.6,6.5-8.73,10.58-12.4
		c3.19-2.86,6.53-5.51,10.38-7.39c3.79-1.85,7.73-3.4,11.6-5.09c-0.63-1.06-1.47-2.31-2.13-3.65c-3.72-7.52-4.79-15.65-5.36-23.87
		c-0.21-3.08-0.11-6.18-0.01-9.27c0.11-3.6,0.36-7.2,0.58-10.8c0.06-0.96-0.06-1.71-1.13-2.1c-0.77-0.28-1.46-0.79-2.18-1.19
		c-8.97-4.93-16.86-11.3-24.16-18.4c-2.5-2.43-4.71-5.18-6.99-7.84c-4.36-5.07-8.1-10.59-10.95-16.6c-2.37-5-4.4-10.21-6.11-15.47
		c-2.14-6.59-3.11-13.46-3.18-20.4c-0.05-4.45,0.16-8.91,0.61-13.34c0.41-4.07,1.13-8.13,1.97-12.14
		c1.22-5.83,3.53-11.27,6.65-16.32c3.11-5.03,7.07-9.32,11.76-12.93c3.34-2.58,6.96-4.67,10.84-6.36
		c6.54-2.85,13.38-4.32,20.46-4.67c7.02-0.35,13.95,0.42,20.72,2.38c4.75,1.38,9.32,3.21,13.59,5.72
		c5.47,3.22,10.39,7.08,14.42,12.03c2.92,3.58,5.38,7.44,7.21,11.69c2,4.63,3.96,9.28,6.04,14.14c2.27-3.89,4.29-7.51,6.44-11.05
		c3.21-5.28,6.79-10.32,11.01-14.83c2.63-2.81,5.51-5.42,8.47-7.9c6.97-5.82,15.05-9.29,24.09-10.06
		c6.41-0.55,12.74,0.31,18.93,2.27c5.23,1.65,10.28,3.72,15,6.49c4.79,2.81,9.44,5.86,14.23,8.85c0.04-0.04,0.27-0.3,0.48-0.57
		c2.17-2.83,4.12-5.88,6.56-8.45c4.37-4.61,9.52-8.26,15.08-11.41c7.53-4.27,15.52-7.32,23.86-9.49c5.97-1.56,12.03-2.62,18.21-3.03
		c4.88-0.33,9.72-0.68,14.64-0.36c5.7,0.37,11.32,0.98,16.92,2.13c6.28,1.3,12.36,3.2,18.16,5.91c8.43,3.93,15.93,9.14,22.33,15.97
		c4.06,4.34,7.44,9.11,10.23,14.3c1.38,2.57,2.54,5.27,3.79,7.9c4.61-7.14,10.08-13.46,16.64-18.87c5.67-4.68,11.88-8.4,18.59-11.34
		c8.69-3.81,17.85-5.44,27.25-5.7c4.39-0.12,8.8,0.32,13.19,0.55c2.95,0.16,5.92,0.24,8.85,0.63c5.04,0.67,10.08,1.36,15.06,2.39
		c6.86,1.42,13.71,2.97,20.47,4.81c8.04,2.19,15.87,5.09,23.41,8.65c8.1,3.83,15.95,8.08,23.22,13.38
		c6.09,4.44,11.85,9.22,17.05,14.71c4.95,5.23,9.39,10.81,13.26,16.88c4.17,6.53,7.6,13.44,10.1,20.74
		c1.87,5.47,3.41,11.07,4.73,16.7c1.43,6.08,2.07,12.3,2.18,18.55c0.05,2.57-0.05,5.16-0.3,7.72c-0.41,4.19-0.71,8.43-1.58,12.54
		c-1.9,8.97-5.21,17.45-9.78,25.43c-4.39,7.66-9.72,14.61-15.83,20.96c-1.96,2.03-4.03,3.98-6.15,5.84
		c-2.58,2.27-5.18,4.54-7.95,6.57c-3.84,2.82-7.84,5.4-11.79,8.1c4.03,2.65,7.76,5.77,11.17,9.33c5.51,5.74,9.64,12.33,12.7,19.62
		c2.47,5.89,3.75,12.06,3.76,18.43c0,4.7-0.27,9.4-0.59,14.09c-0.27,3.92-0.64,7.84-1.22,11.72c-0.76,5.12-1.64,10.22-2.67,15.29
		c-1.44,7.11-2.92,14.23-4.65,21.28c-1.16,4.74-1.89,9.43-0.65,14.23c1.62,6.27,3.38,12.5,4.87,18.8c1.03,4.31,1.77,8.7,2.52,13.07
		c0.69,4,1.28,8.02,1.82,12.04c0.46,3.45,1.14,6.92,1.1,10.38c-0.06,4.61-0.48,9.25-1.18,13.81c-0.75,4.88-2.51,9.55-4.85,13.88
		c-1.76,3.25-3.96,6.28-6.13,9.28c-3.16,4.35-7.06,8.04-11.39,11.16c-3.51,2.53-7.4,4.54-11.07,6.85c-0.42,0.26-0.91,1.09-0.78,1.42
		c0.98,2.54,1.87,5.15,3.24,7.49c3.07,5.24,7.24,9.59,11.9,13.45c3.06,2.53,6.13,5.05,9.36,7.35c8.35,5.94,17.33,10.8,26.53,15.27
		c3.77,1.83,7.23,4.12,9.92,7.38c2.57,3.12,3.49,6.68,2.73,10.72c-0.9,4.81-3.61,8.58-6.94,11.84c-2.86,2.8-6.13,5.22-9.37,7.59
		c-1.6,1.17-3.47,1.87-5.66,1.71c-3.76-0.27-7.54-0.25-11.31-0.34c-4.37-0.11-8.74-0.2-13.1-0.3c-3.92-0.09-7.84-0.2-11.76-0.3
		c-4.12-0.1-8.24-0.2-12.36-0.3c-3.87-0.1-7.74-0.22-11.61-0.29c-5.76-0.12-11.53-0.19-17.29-0.31c-2.13-0.05-4.25-0.25-6.37-0.27
		c-4.11-0.05-8.21-0.01-12.49-0.01c-0.08,0.61-0.24,1.42-0.27,2.23c-0.12,3.82-0.18,7.64-0.32,11.46c-0.17,5.1-0.37,10.19-0.6,15.29
		c-0.15,3.4-0.34,6.81-0.6,10.2c-0.46,5.94-0.87,11.88-1.53,17.8c-0.51,4.56-1.25,9.11-2.11,13.61c-0.79,4.14-2.61,7.68-6.9,9.28
		c-1.25,0.47-2.54,0.8-3.82,1.2c-3.09,0-6.18,0-9.27,0c-0.15-0.1-0.29-0.25-0.46-0.28c-4.23-0.92-8.54-1.58-12.69-2.79
		c-4.52-1.32-8.94-3.03-13.31-4.8c-3.38-1.38-6.92-2.71-9.85-4.81c-4.62-3.31-8.89-7.13-13.13-10.94c-2.8-2.52-5.3-5.37-7.88-8.12
		c-3.86-4.11-7.7-8.25-11.51-12.41c-2.53-2.76-5.07-5.53-7.48-8.4c-4.24-5.03-8.43-10.1-12.55-15.23
		c-4.98-6.18-10.01-12.33-14.75-18.69c-5.8-7.79-11.42-15.73-16.95-23.72c-6.47-9.35-12.51-18.98-18-28.96
		c-3.77-6.86-7.32-13.81-10.21-21.08c-0.65-1.64-1.3-3.27-1.95-4.92c-1.91,4.49-3.61,8.95-5.68,13.23
		c-2.56,5.28-5.26,10.49-8.19,15.57c-3.68,6.38-7.56,12.65-11.54,18.85c-3.48,5.42-7.19,10.69-10.88,15.97
		c-3.31,4.72-6.65,9.42-10.14,14.01c-4.36,5.73-8.85,11.36-13.35,16.99c-4.32,5.4-8.68,10.77-13.12,16.08
		c-3.38,4.04-6.87,8-10.41,11.9c-4.16,4.58-8.34,9.15-12.69,13.56c-4,4.06-8.14,8-12.41,11.78c-2.33,2.06-4.87,4.03-7.62,5.44
		c-4.64,2.37-9.44,4.49-14.33,6.27c-4.79,1.74-9.77,2.96-14.69,4.32C159.17,611.32,157.21,611.6,155.28,612z M435.91,556.59
		c0-19.91,0-39.51,0-59.31c2.28,0.15,4.34,0.38,6.41,0.42c8.71,0.14,17.41,0.21,26.12,0.32c8.16,0.1,16.31,0.22,24.47,0.29
		c13.29,0.12,26.59,0.2,39.88,0.3c0.21,0,0.41-0.03,0.62-0.04c-8.23-2.9-15.93-6.78-23.43-11.07c-9.04-5.17-17.73-10.88-25.88-17.4
		c-6.32-5.05-12.57-10.17-17.97-16.22c-2.76-3.09-5.57-6.14-8.14-9.37c-5.21-6.55-9.3-13.74-11.7-21.81
		c-0.52-1.74-0.84-3.54-1.29-5.46c0.65,0,0.95-0.03,1.24,0c4.61,0.6,9.22,1.32,13.84,1.78c5.24,0.52,10.51,1,15.77,1.15
		c3.99,0.11,8-0.24,11.99-0.56c3.47-0.28,6.96-0.59,10.36-1.25c6.88-1.34,13.47-3.59,19.48-7.32c5.53-3.44,9.99-7.88,13.1-13.66
		c2.25-4.18,3.6-8.59,4.21-13.31c0.54-4.19,0.54-8.3-0.29-12.43c-0.74-3.68-1.5-7.36-2.16-11.06c-0.77-4.28-1.45-8.57-2.16-12.86
		c-0.68-4.1-1.41-8.18-2.02-12.29c-0.58-3.92-1.02-7.87-1.54-11.81c-0.57-4.27-1.55-8.5-0.9-12.87c0.43-2.86,0.38-5.81,0.98-8.63
		c1.81-8.43,3.92-16.79,5.74-25.21c0.86-4.01,1.61-8.08,1.89-12.16c0.23-3.32-0.02-6.74-0.58-10.03c-0.85-5.03-3.38-9.4-7.79-11.99
		c-4.82-2.83-9.93-5.26-15.13-7.32c-7.54-2.99-15.42-4.93-23.52-5.73c-6.22-0.62-12.46-1.14-18.7-1.46
		c-3.46-0.18-6.94,0.11-10.41,0.26c-3.05,0.14-6.12,0.26-9.15,0.62c-4.76,0.58-9.51,1.24-14.23,2.08
		c-5.71,1.02-11.43,2.07-17.06,3.45c-10.27,2.51-20.35,5.64-30.26,9.34c-10.5,3.92-20.69,8.46-30.52,13.82
		c-7.29,3.98-14.4,8.22-20.19,14.33c-0.23,0.25-0.9,0.38-1.2,0.23c-4.5-2.27-9.19-4.02-14.04-5.37c-4.79-1.34-9.67-2.26-14.61-2.25
		c-5.87,0.01-11.75,0.5-17.62,0.84c-3.77,0.22-7.51,0.79-10.95,2.4c-2.85,1.33-5.56,2.96-8.14,4.35c-2.8-2.28-5.65-4.83-8.74-7.05
		c-8.41-6.02-17.55-10.81-27.02-14.91c-6.43-2.79-12.95-5.39-19.53-7.82c-9.55-3.52-19.33-6.37-29.25-8.64
		c-4.47-1.02-8.96-1.96-13.48-2.71c-4.64-0.76-9.31-1.34-13.99-1.82c-5.04-0.51-10.11-0.95-15.17-1.17
		c-3.46-0.15-6.95,0.03-10.41,0.28c-5.29,0.39-10.61,0.71-15.84,1.54c-5.28,0.84-10.52,2.08-15.68,3.49
		c-6.75,1.85-13.12,4.71-19.22,8.17c-4.1,2.33-7,5.68-8.48,10.16c-1.44,4.35-1.96,8.8-1.24,13.37c0.67,4.25,1.06,8.56,1.93,12.76
		c1.28,6.15,3.03,12.2,4.32,18.34c0.93,4.44,1.62,8.95,2.08,13.46c0.31,3.02,0.2,6.11-0.04,9.14c-0.27,3.36-0.92,6.68-1.39,10.03
		c-0.44,3.15-0.81,6.32-1.29,9.46c-0.63,4.1-1.32,8.2-2.01,12.29c-0.72,4.23-1.46,8.47-2.25,12.69c-0.7,3.74-1.87,7.43-2.16,11.19
		c-0.66,8.53,0.62,16.74,5.21,24.22c2.88,4.7,6.64,8.52,11.19,11.55c4.54,3.02,9.53,5.1,14.77,6.6c7.99,2.28,16.2,2.96,24.44,3.25
		c3.71,0.13,7.44-0.16,11.16-0.26c0.1,0,0.2,0,0.3-0.01c3.76-0.39,7.53-0.75,11.28-1.2c3.3-0.4,6.59-0.9,9.89-1.37
		c1.62-0.23,3.23-0.5,4.85-0.76c0.1,0.16,0.21,0.32,0.31,0.48c-18.94,37.78-47.14,65.39-87.9,79.49c31.29,0,62.47,0,93.91,0
		c0,19.99,0,39.84,0,59.68c0.41,0.05,0.59,0.13,0.7,0.08c1.46-0.69,2.96-1.31,4.35-2.13c8.64-5.09,16.29-11.46,23.5-18.37
		c6.65-6.39,13.1-12.99,18.97-20.12c2.9-3.53,6.02-6.9,8.7-10.59c5.7-7.87,11.35-15.78,16.7-23.9c3.56-5.41,6.68-11.13,9.77-16.84
		c2.4-4.42,4.6-8.95,6.64-13.55c2.23-5.03,4.46-10.09,6.18-15.31c2.12-6.46,3.81-13.08,5.51-19.67c1.71-6.63,2.25-13.44,2.59-20.25
		c0.16-3.31-0.11-6.64-0.28-9.96c-0.06-1.31-0.35-2.62-0.54-3.92c-0.3-1.97-0.6-3.94-0.91-5.95c0.24,0.07,0.44,0.1,0.61,0.19
		c6.5,3.56,13.71,4.13,20.86,4.72c3.68,0.3,7.4,0.2,11.1,0.02c4.76-0.24,9.54-0.55,14.26-1.2c6.05-0.83,12.09-1.93,16.79-6.46
		c0.03,0.17,0.09,0.28,0.06,0.36c-2.02,7.1-2.39,14.41-2.62,21.72c-0.12,3.79,0.23,7.61,0.57,11.4c0.38,4.35,0.65,8.74,1.56,12.99
		c1.51,7.04,3.22,14.05,5.34,20.92c1.73,5.62,4.01,11.08,6.36,16.48c3.71,8.53,8.2,16.66,13.26,24.46
		c4.82,7.44,9.92,14.68,15.75,21.36c4.8,5.5,9.54,11.07,14.61,16.32c4.43,4.59,9.26,8.8,13.96,13.14c2.65,2.44,5.3,4.89,8.09,7.16
		c4.59,3.74,9.28,7.38,13.97,11C430.08,552.44,432.88,554.38,435.91,556.59z M450.51,203.94c0,0.15,0,0.29,0,0.44
		c2.67-0.15,5.34-0.26,8.01-0.44c3.73-0.26,7.47-0.47,11.19-0.91c5-0.59,10.03-1.14,14.96-2.15c6.1-1.26,12.16-2.77,18.12-4.54
		c9.56-2.84,18.77-6.62,27.46-11.56c8.14-4.63,15.67-10.04,21.97-17.08c4.27-4.78,7.86-9.96,10.55-15.8
		c2.6-5.65,4.26-11.58,4.69-17.73c0.54-7.79-0.08-15.53-2.51-23.06c-3.24-10.04-8.61-18.83-15.65-26.58
		c-6.45-7.1-13.75-13.24-21.88-18.41c-8.99-5.72-18.42-10.48-28.52-13.82c-5.54-1.83-11.16-3.55-16.86-4.67
		c-5.85-1.15-11.85-1.64-17.8-2.17c-2.64-0.24-5.35,0.04-8.01,0.27c-3.22,0.28-6.46,0.54-9.61,1.21
		c-9.09,1.93-17.3,5.58-23.34,13.03c-3.29,4.06-5.53,8.65-6.48,13.77c-0.86,4.66-1.57,9.36-2.09,14.07
		c-0.57,5.24-0.88,10.51-1.23,15.76c-0.26,4-0.44,8-0.6,12c-0.14,3.67-0.3,7.34-0.29,11.01c0.03,6.66,0.13,13.32,0.29,19.98
		c0.12,5.1,0.33,10.2,0.6,15.29c0.21,3.98,0.36,7.99,0.94,11.93c0.78,5.3,1.77,10.59,3.01,15.8c0.84,3.55,2.41,6.83,5.71,8.96
		c5.09,3.28,10.65,5.1,16.67,5.38C443.36,204.08,446.94,203.94,450.51,203.94z M308.3,34.35c-5.04-0.33-10.14,0.47-15.17,1.67
		c-5.61,1.33-10.98,3.35-16.04,6.17c-4.27,2.38-8.05,5.41-11.15,9.14c-5.88,7.08-6.78,15.35-4.85,24.03
		c1.65,7.42,5.74,13.53,10.9,18.96c2.92,3.07,5.99,5.99,8.96,9.01c0.58,0.59,1.08,1.28,1.48,2c0.7,1.26,0.35,1.91-0.92,2.45
		c-5.32,2.28-10.71,4.43-15.92,6.96c-8.95,4.35-16.99,10.08-23.69,17.47c-2.54,2.81-4.72,6-6.71,9.24
		c-3.63,5.9-4.93,12.52-5.11,19.36c-0.15,5.68,0.01,11.34,1.14,16.96c1.9,9.46,5.95,17.62,13.46,23.94c4.1,3.45,8.7,5.99,13.64,7.9
		c9.78,3.79,20.1,4.92,30.45,5.67c3.73,0.27,7.5,0.01,11.25,0.05c4.94,0.05,9.77-0.74,14.58-1.78c6.21-1.35,12-3.67,17.42-6.98
		c6.2-3.78,11.2-8.98,16.49-13.84c1.58-1.45,2.95-3.12,4.58-4.51c2.49-2.14,3.79-2.26,6.01,0.15c0.72,0.78,1.31,1.72,1.8,2.66
		c2.76,5.36,6.53,9.78,11.72,12.9c3.84,2.3,8.01,3.84,12.44,2.61c9.16-2.54,16.13-12.35,10.45-23.28c-2.83-5.45-7.4-9.4-11.69-13.59
		c-0.07-0.07-0.19-0.08-0.26-0.14c-3.21-2.76-6.54-5.39-9.59-8.31c-2.54-2.43-2.33-6.14-0.57-8.62c1.5-2.11,3.16-4.12,4.49-6.33
		c3.86-6.46,6.48-13.29,5.34-21.02c-0.46-3.11-1.45-6.06-4.09-8.03c-3.42-2.55-6.98-1.9-10.95,0.52c-4.16,2.54-7.17,6.26-9.74,10.28
		c-2.21,3.45-4.05,7.13-6.01,10.74c-0.53,0.97-1.07,1.29-2.21,0.9c-2.72-0.94-4.7-2.92-6.57-4.87c-3.23-3.37-6.34-6.9-9.14-10.62
		c-3.1-4.13-6.03-8.43-8.62-12.89c-2.11-3.64-1.36-4.38,1.85-6.65c4.03-2.84,8.32-5.29,12.36-8.11c4.64-3.24,8.7-7.16,11.37-12.22
		c2.63-4.97,3.57-10.3,2.79-15.94c-0.46-3.31-1.14-6.51-2.61-9.54c-2.35-4.86-5.49-9.09-9.46-12.77c-3.62-3.35-7.72-5.91-12.21-7.77
		C323.14,35.42,315.95,33.99,308.3,34.35z M133.41,202.71c2.22-0.35,4.5-0.5,6.66-1.08c6.51-1.78,10.3-6.39,12.52-12.52
		c1.92-5.29,2.49-10.85,2.97-16.4c0.35-4.09,0.52-8.19,0.6-12.3c0.09-4.34,0.39-8.65,1.55-12.84c0.79-2.88,2.18-5.28,5.38-6.23
		c1.81-0.54,3.51-1.46,5.21-2.3c6.55-3.25,12.6-7.28,18.23-11.95c5.1-4.23,9.8-8.83,13.99-13.98c4.57-5.62,8.43-11.65,11.12-18.37
		c2.98-7.44,4.45-15.13,2.87-23.16c-1.25-6.34-3.87-11.89-8.94-16.21c-5.69-4.85-14.02-6.53-21.07-2.91
		c-5.14,2.63-8.64,6.81-11.24,11.8c-1.83,3.5-3.32,7.17-5.12,10.68c-3.39,6.64-7.76,12.53-13.21,17.67
		c-4.02,3.79-8.47,6.83-13.62,8.78c-4.66,1.76-9.42,2.36-14.16,0.23c-4.19-1.87-7.26-5.11-9.83-8.74c-2.5-3.54-4.84-7.23-6.87-11.05
		c-2.72-5.13-5.08-10.45-7.6-15.68c-1.37-2.86-2.51-5.86-4.17-8.54c-3.9-6.29-9.81-9.64-17.08-10.38
		c-5.16-0.53-10.11,0.64-14.56,3.28c-4.04,2.4-7.21,5.7-8.51,10.4c-0.77,2.77-0.9,5.56-0.53,8.45c0.58,4.43,0.74,8.92,1.27,13.36
		c0.69,5.79,2.41,11.32,4.73,16.67c4.05,9.35,10.61,16.58,18.93,22.26c6.12,4.19,12.46,8.06,18.51,12.35c3.09,2.2,5.4,5.24,6.9,8.85
		c2.85,6.85,3.41,14.12,4.13,21.36c0.42,4.17,0.49,8.37,0.95,12.53c0.43,3.93,0.93,7.88,1.82,11.72c1.06,4.56,3.19,8.64,7.3,11.28
		C125.83,201.86,129.5,202.6,133.41,202.71z"/>
	<path class="st0" d="M457.43,133.05c0-4.17,0.03-8.34-0.01-12.51c-0.03-2.27-0.42-4.57-0.24-6.82c0.4-4.94,0.04-9.94,1.43-14.8
		c1.53-5.36,4.32-8.77,10.26-9.62c4.86-0.69,9.51,0.24,14.12,1.35c7.6,1.83,14.65,5.03,21.09,9.48c5.04,3.48,9.3,7.73,11.75,13.43
		c1.02,2.38,1.67,5.01,1.99,7.58c1.07,8.62-2.28,15.73-7.85,22.06c-5.41,6.14-12.1,10.39-19.72,13.09
		c-4.43,1.57-9.04,2.84-13.68,3.53c-4.37,0.65-8.85,0.34-12.72-2.51c-2.89-2.13-4.42-5.1-5.17-8.45c-0.64-2.85-0.92-5.79-1.22-8.71
		c-0.25-2.36-0.31-4.74-0.46-7.11C457.14,133.05,457.29,133.05,457.43,133.05z"/>
	<path class="st0" d="M293.8,182.58c-5.1-0.01-10.01-0.83-14.52-3.25c-5.64-3.03-9.14-7.76-10.95-13.93
		c-1.99-6.75,0.18-12.35,4.24-17.58c5.85-7.52,13.17-13.18,21.79-17.15c1.81-0.83,3.7-1.52,5.62-2.04c2.25-0.61,4.12,0.66,5.57,2.04
		c4.83,4.6,9.59,9.28,14.16,14.14c3.02,3.21,5.77,6.7,8.43,10.22c2.03,2.69,3.35,5.72,3.08,9.28c-0.18,2.36-1.01,4.34-2.54,6.09
		c-3.06,3.51-7.04,5.7-11.33,7.14c-4.88,1.64-9.86,3.02-14.88,4.17C299.66,182.35,296.69,182.31,293.8,182.58z"/>
	<path class="st0" d="M308.71,55.06c3.71,0.16,7.28,0.64,10.37,2.86c3.24,2.32,5,5.46,5.56,9.44c0.73,5.23-0.48,10.05-2.8,14.59
		c-2.7,5.29-6.69,9.34-12.44,11.42c-4.07,1.48-7.34,0.47-10.41-2.49c-3.91-3.76-6.48-8.2-7.69-13.43
		c-1.43-6.14-0.96-12.02,3.24-17.04c2.09-2.5,5.04-3.85,8.2-4.54C304.7,55.46,306.72,55.32,308.71,55.06z"/>
</g>
</svg>
