<?xml version="1.0" encoding="utf-8"?>
<!-- Generator: Adobe Illustrator 24.3.0, SVG Export Plug-In . SVG Version: 6.00 Build 0)  -->
<svg version="1.1" id="Слой_2_1_" xmlns="http://www.w3.org/2000/svg" xmlns:xlink="http://www.w3.org/1999/xlink" x="0px"
	 y="0px" viewBox="0 0 595.28 595.28" style="enable-background:new 0 0 595.28 595.28;" xml:space="preserve">
<style type="text/css">
	.st0{fill:#FFFFFF;}
</style>
<path class="st0" d="M297.64,0C133.26,0,0,133.26,0,297.64s133.26,297.64,297.64,297.64s297.64-133.26,297.64-297.64
	S462.02,0,297.64,0z M297.71,88.28c58.78,0,106.43,47.65,106.43,106.43s-47.65,106.43-106.43,106.43s-106.43-47.65-106.43-106.43
	S238.93,88.28,297.71,88.28z M413.61,345.39c-4.7,3.11-9.37,5.97-14.01,8.62c-12.02,7.95-29.4,17.26-51.08,22.72
	c-10.59,2.66-22.77,4.78-36.23,5.56l83.59,76.43c10.8,9.88,11.55,26.64,1.67,37.44c-5.23,5.72-12.38,8.62-19.56,8.62
	c-6.39,0-12.79-2.29-17.88-6.94l-63.8-58.34l-61.07,58c-10.61,10.08-27.39,9.64-37.46-0.97c-10.08-10.61-9.64-27.39,0.97-37.46
	l81.24-77.15c-11.38-0.97-21.77-2.88-30.96-5.19c-16.89-4.25-30.6-10.84-41.1-17.31c-7.89-4.03-15.89-8.68-23.99-14.03
	c-12.21-8.07-15.57-24.51-7.5-36.72c8.07-12.21,24.51-15.57,36.72-7.5c31.28,20.67,60.48,27.96,85.61,28.43
	c25.14-0.46,54.33-7.76,85.61-28.43c12.21-8.07,28.65-4.71,36.72,7.5C429.18,320.88,425.82,337.32,413.61,345.39z"/>
<ellipse transform="matrix(0.7071 -0.7071 0.7071 0.7071 -51.1529 266.3861)" class="st0" cx="295.98" cy="194.94" rx="51.66" ry="51.66"/>
</svg>
