<?xml version="1.0" encoding="utf-8"?>
<!-- Generator: Adobe Illustrator 24.3.0, SVG Export Plug-In . SVG Version: 6.00 Build 0)  -->
<svg version="1.1" id="Слой_2_1_" xmlns="http://www.w3.org/2000/svg" xmlns:xlink="http://www.w3.org/1999/xlink" x="0px"
	 y="0px" viewBox="0 0 595.28 595.28" style="enable-background:new 0 0 595.28 595.28;" xml:space="preserve">
<style type="text/css">
	.st0{fill:#FFFFFF;}
</style>
<path class="st0" d="M297.64,0C133.26,0,0,133.26,0,297.64s133.26,297.64,297.64,297.64s297.64-133.26,297.64-297.64
	S462.02,0,297.64,0z M477,428.28c-4,8-20,38-62,49c-66.18,17.33-178-61-242-144s-58-127-55-155s40-54,45-59s14-8,25,0s52,50,64,66
	s0,25,0,25s-0.22,7.84-23,28c-26,23,101,168,129,127c33.01-48.33,53-24,53-24s65,63,66,67S481,420.28,477,428.28z"/>
</svg>
