<?xml version="1.0" encoding="utf-8"?>
<!-- Generator: Adobe Illustrator 24.3.0, SVG Export Plug-In . SVG Version: 6.00 Build 0)  -->
<svg version="1.1" id="Слой_2_1_" xmlns="http://www.w3.org/2000/svg" xmlns:xlink="http://www.w3.org/1999/xlink" x="0px"
	 y="0px" viewBox="0 0 595.28 595.28" style="enable-background:new 0 0 595.28 595.28;" xml:space="preserve">
<style type="text/css">
	.st0{fill:#FFFFFF;}
</style>
<path class="st0" d="M297.64,0C133.26,0,0,133.26,0,297.64s133.26,297.64,297.64,297.64s297.64-133.26,297.64-297.64
	S462.02,0,297.64,0z M445,193.28c-6,28-45,219-50,239s-14,24-28,14s-70.86-55-70.86-55s-19.14,16-35.14,32s-19,10-19,10l5-75
	c0,0,128-115,134-123s8-10,0-8s-175,112-175,112c-97-28-89-30-82-41.64s268-106.36,280-111.36S451,165.28,445,193.28z"/>
</svg>
