<?xml version="1.0" encoding="utf-8"?>
<!-- Generator: Adobe Illustrator 24.3.0, SVG Export Plug-In . SVG Version: 6.00 Build 0)  -->
<svg version="1.1" id="Слой_2_1_" xmlns="http://www.w3.org/2000/svg" xmlns:xlink="http://www.w3.org/1999/xlink" x="0px"
	 y="0px" viewBox="0 0 595.28 595.28" style="enable-background:new 0 0 595.28 595.28;" xml:space="preserve">
<style type="text/css">
	.st0{fill:#FFFFFF;}
</style>
<path class="st0" d="M297.64,0C133.26,0,0,133.26,0,297.64s133.26,297.64,297.64,297.64s297.64-133.26,297.64-297.64
	S462.02,0,297.64,0z M447,239.28c-3,7-48,69-49,75s57,56,46,70s-60,8-66,5s-35-37-44-38s-10,30-13,34s-60,16-108-35s-69-122-64-123
	s56-4,62-1c2.35,1.17,3.91,16.91,13.61,33.23c15.08,25.39,32.91,54.64,34.39,42.77c9-72-13-70-13-70s0-11,10-11s50-1,58,0
	s11,5,11,11s-8,71,5,70s45-74,48-75s59-1,64,0S450,232.28,447,239.28z"/>
</svg>
